<?xml version="1.0" encoding="UTF-8" standalone="no"?>
<!-- Created with Inkscape (http://www.inkscape.org/) -->

<svg
   width="19.654129mm"
   height="19.653105mm"
   viewBox="0 0 19.654129 19.653105"
   version="1.1"
   id="svg1"
   xml:space="preserve"
   xmlns="http://www.w3.org/2000/svg"
   xmlns:svg="http://www.w3.org/2000/svg"><defs
     id="defs1" /><path
     id="path64"
     style="fill:#ffffff;stroke:none;stroke-width:0.655;stroke-linecap:round;stroke-dashoffset:1.88976"
     d="m 14.400865,0.90338858 a 10.009243,10.009243 0 0 0 -1.03367,-0.46137 l -1.80872,1.69600002 -4.6e-4,-2.4e-4 A 7.8577232,7.8577232 0 0 0 9.2695553,1.9608386 L 7.7758253,-1.416885e-6 A 10.009243,10.009243 0 0 0 5.6008353,0.72052858 l -0.0806,2.49858002 a 7.8577232,7.8577232 0 0 0 -1.6383,1.42745 l -2.44165,-0.32976 a 10.009243,10.009243 0 0 0 -0.52254002,0.89632 10.009243,10.009243 0 0 0 -0.52981,1.22163 l 1.71903002,1.83396 a 7.8577232,7.8577232 0 0 0 -0.13657,1.9959034 L -1.4714811e-5,11.765632 A 10.009243,10.009243 0 0 0 0.76638528,14.080552 l 2.51176002,0.081 a 7.8577232,7.8577232 0 0 0 1.22207,1.42658 l -0.33456,2.47464 a 10.009243,10.009243 0 0 0 1.06178,0.6335 10.009243,10.009243 0 0 0 1.13189,0.4975 l 1.82181,-1.70786 a 7.8577232,7.8577232 0 0 0 1.8709397,0.16808 l 1.52284,1.99911 a 10.009243,10.009243 0 0 0 2.33028,-0.71837 l 0.0799,-2.47572 a 7.8577232,7.8577232 0 0 0 1.54665,-1.26889 l 2.49149,0.33686 a 10.009243,10.009243 0 0 0 0.6874,-1.14038 10.009243,10.009243 0 0 0 0.42708,-0.94554 l -1.68481,-1.79772 a 7.8577232,7.8577232 0 0 0 0.21259,-2.1625104 l 1.98861,-1.514883 a 10.009243,10.009243 0 0 0 -0.67458,-2.18968 l -2.4637,-0.0795 a 7.8577232,7.8577232 0 0 0 -1.47147,-1.76157 7.8577232,7.8577232 0 0 0 -4.6e-4,-2.4e-4 l 0.3325,-2.4571 a 10.009243,10.009243 0 0 0 -0.97537,-0.57442002 z m -2.27194,4.40663002 a 5.051394,5.051394 0 0 1 2.17497,6.8045834 5.051394,5.051394 0 0 1 -6.8045697,2.17497 5.051394,5.051394 0 0 1 -2.17497,-6.8045734 5.051394,5.051394 0 0 1 6.8045697,-2.17498 z" /></svg>
