<?xml version="1.0" encoding="UTF-8" standalone="no"?>
<!-- Created with Inkscape (http://www.inkscape.org/) -->

<svg
   width="15.369378mm"
   height="14.841988mm"
   viewBox="0 0 15.369378 14.841988"
   version="1.1"
   id="svg1"
   xml:space="preserve"
   xmlns="http://www.w3.org/2000/svg"
   xmlns:svg="http://www.w3.org/2000/svg"><defs
     id="defs1" /><g
     id="layer1"
     transform="translate(-341.41203,-137.09068)"><path
       id="path20"
       style="fill:#f9f9f9;stroke-width:1.30097;stroke-linecap:round;stroke-dashoffset:1.88976"
       d="m 350.03384,137.09068 v 2.92437 h 2.61896 v 1.09502 h -0.0475 -1.09451 -1.82418 v -2.43964 c 0,-0.54624 -0.43975,-0.98599 -0.98598,-0.98599 h -5.07876 c -0.54624,0 -0.98599,0.43975 -0.98599,0.98599 v 2.43964 h -0.32556 c -0.34116,0 -0.68225,1.86091 -0.80564,3.87212 l -0.0925,1.50895 c -2.2e-4,0.003 -1.5e-4,0.007 0,0.0103 v 5.2e-4 1.48363 h 15.36909 v -1.48363 -5.2e-4 c 1.5e-4,-0.003 2.2e-4,-0.007 0,-0.0103 l -0.0925,-1.50895 c -0.12339,-2.01121 -0.46448,-3.87212 -0.80564,-3.87212 h -2.28306 v -1.09502 h 2.61896 v -2.92437 z m -5.72627,1.43712 h 3.70727 c 0.40449,0 0.73019,0.32569 0.73019,0.73019 v 1.83038 c 0,0.007 -3.1e-4,0.0145 -5.2e-4,0.0217 h -1.52859 -1.3131 -0.31471 -2.01021 c -2.1e-4,-0.007 -5.2e-4,-0.0144 -5.2e-4,-0.0217 v -1.83038 c 0,-0.4045 0.3257,-0.73019 0.73019,-0.73019 z m 0.38241,4.15375 h 1.73633 v 1.00046 h -1.73633 z m 2.35903,0 h 1.73632 v 1.00046 h -1.73632 z m 2.35954,0 h 1.73633 v 1.00046 h -1.73633 z m 2.35903,0 h 1.73633 v 1.00046 h -1.73633 z m -7.0776,1.57097 h 1.73633 v 1.00045 h -1.73633 z m 2.35903,0 h 1.73632 v 1.00045 h -1.73632 z m 2.35954,0 h 1.73633 v 1.00045 h -1.73633 z m 2.35903,0 h 1.73633 v 1.00045 h -1.73633 z m -7.0776,1.56269 h 1.73633 v 1.00046 h -1.73633 z m 2.35903,0 h 1.73632 v 1.00046 h -1.73632 z m 2.35954,0 h 1.73633 v 1.00046 h -1.73633 z m 2.35903,0 h 1.73633 v 1.00046 h -1.73633 z m -10.35544,2.87218 v 3.24528 h 4.49068 1.3131 4.29483 5.27048 v -3.24528 z m 7.44864,0.98237 a 0.73666149,0.73666149 0 0 1 0.73691,0.73638 0.73666149,0.73666149 0 0 1 -0.73691,0.73691 0.73666149,0.73666149 0 0 1 -0.73639,-0.73691 0.73666149,0.73666149 0 0 1 0.73639,-0.73638 z" /></g></svg>
