<?xml version="1.0" encoding="UTF-8" standalone="no"?>
<!-- Created with Inkscape (http://www.inkscape.org/) -->

<svg
   width="104.27138mm"
   height="24.520081mm"
   viewBox="0 0 104.27138 24.520081"
   version="1.1"
   id="svg1"
   xml:space="preserve"
   inkscape:version="1.4.2 (f4327f4, 2025-05-13)"
   sodipodi:docname="teste.svg"
   xmlns:inkscape="http://www.inkscape.org/namespaces/inkscape"
   xmlns:sodipodi="http://sodipodi.sourceforge.net/DTD/sodipodi-0.dtd"
   xmlns="http://www.w3.org/2000/svg"
   xmlns:svg="http://www.w3.org/2000/svg"><sodipodi:namedview
     id="namedview1"
     pagecolor="#505050"
     bordercolor="#eeeeee"
     borderopacity="1"
     inkscape:showpageshadow="0"
     inkscape:pageopacity="0"
     inkscape:pagecheckerboard="0"
     inkscape:deskcolor="#505050"
     inkscape:document-units="mm"
     inkscape:zoom="1"
     inkscape:cx="834.5"
     inkscape:cy="378.5"
     inkscape:window-width="1920"
     inkscape:window-height="1009"
     inkscape:window-x="-8"
     inkscape:window-y="-8"
     inkscape:window-maximized="1"
     inkscape:current-layer="layer1"><inkscape:page
       x="0"
       y="0"
       width="104.27138"
       height="24.520081"
       id="page2"
       margin="0"
       bleed="0" /></sodipodi:namedview><defs
     id="defs1"><clipPath
       clipPathUnits="userSpaceOnUse"
       id="clipPath5877"><path
         d="M 0,841.89 H 595.276 V 0 H 0 Z"
         transform="matrix(1.3333333,0,0,-1.3333333,0,1122.52)"
         id="path5877" /></clipPath><clipPath
       clipPathUnits="userSpaceOnUse"
       id="clipPath5816"><path
         d="M -1068.99,1068.99 H 1068.99 V -1068.99 H -1068.99 Z"
         transform="translate(-1027.6531,-100.21991)"
         id="path5816" /></clipPath><clipPath
       clipPathUnits="userSpaceOnUse"
       id="clipPath5817"><path
         d="M -1068.99,1068.99 H 1068.99 V -1068.99 H -1068.99 Z"
         transform="translate(-921.40063,-100.21991)"
         id="path5817" /></clipPath><clipPath
       clipPathUnits="userSpaceOnUse"
       id="clipPath5818"><path
         d="M -1068.99,1068.99 H 1068.99 V -1068.99 H -1068.99 Z"
         transform="translate(-837.40395,-100.21987)"
         id="path5818" /></clipPath><clipPath
       clipPathUnits="userSpaceOnUse"
       id="clipPath5819"><path
         d="M -1068.99,1068.99 H 1068.99 V -1068.99 H -1068.99 Z"
         transform="matrix(0.3373448,0.71209861,-0.94138113,0.25518137,147.37219,464.77079)"
         id="path5819" /></clipPath><clipPath
       clipPathUnits="userSpaceOnUse"
       id="clipPath5820"><path
         d="M -1068.99,1068.99 H 1068.99 V -1068.99 H -1068.99 Z"
         transform="matrix(0.45487727,0.67365023,-0.89055411,0.34408732,180.387,450.63685)"
         id="path5820" /></clipPath><clipPath
       clipPathUnits="userSpaceOnUse"
       id="clipPath5821"><path
         d="M -1068.99,1068.99 H 1068.99 V -1068.99 H -1068.99 Z"
         transform="matrix(0.55031972,0.63159218,-0.834954,0.41628379,221.0771,435.14729)"
         id="path5821" /></clipPath><clipPath
       clipPathUnits="userSpaceOnUse"
       id="clipPath5822"><path
         d="M -1068.99,1068.99 H 1068.99 V -1068.99 H -1068.99 Z"
         transform="matrix(0.63176308,0.58636331,-0.77516147,0.47789086,243.516,418.4668)"
         id="path5822" /></clipPath><clipPath
       clipPathUnits="userSpaceOnUse"
       id="clipPath5823"><path
         d="M -1068.99,1068.99 H 1068.99 V -1068.99 H -1068.99 Z"
         transform="matrix(0.70651036,0.53533462,-0.70770266,0.53443231,279.01951,399.63327)"
         id="path5823" /></clipPath><clipPath
       clipPathUnits="userSpaceOnUse"
       id="clipPath5824"><path
         d="M -1068.99,1068.99 H 1068.99 V -1068.99 H -1068.99 Z"
         transform="matrix(0.77184602,0.48095228,-0.63580949,0.5838551,294.39864,379.5615)"
         id="path5824" /></clipPath><clipPath
       clipPathUnits="userSpaceOnUse"
       id="clipPath5825"><path
         d="M -1068.99,1068.99 H 1068.99 V -1068.99 H -1068.99 Z"
         transform="matrix(0.83143144,0.42029897,-0.55562738,0.62892824,325.79625,357.18148)"
         id="path5825" /></clipPath><clipPath
       clipPathUnits="userSpaceOnUse"
       id="clipPath5826"><path
         d="M -1068.99,1068.99 H 1068.99 V -1068.99 H -1068.99 Z"
         transform="matrix(0.89634437,0.33537383,-0.44335855,0.67803035,348.59257,325.86876)"
         id="path5826" /></clipPath><clipPath
       clipPathUnits="userSpaceOnUse"
       id="clipPath5827"><path
         d="M -1068.99,1068.99 H 1068.99 V -1068.99 H -1068.99 Z"
         transform="matrix(0.9349327,0.26840373,-0.35482515,0.70722046,353.94353,301.19356)"
         id="path5827" /></clipPath><clipPath
       clipPathUnits="userSpaceOnUse"
       id="clipPath5828"><path
         d="M -1068.99,1068.99 H 1068.99 V -1068.99 H -1068.99 Z"
         transform="matrix(0.96644314,0.19431472,-0.25688059,0.73105625,375.87775,273.90618)"
         id="path5828" /></clipPath><clipPath
       clipPathUnits="userSpaceOnUse"
       id="clipPath5829"><path
         d="M -1068.99,1068.99 H 1068.99 V -1068.99 H -1068.99 Z"
         transform="matrix(0.98825875,0.11557663,-0.15278972,0.74755838,374.35019,244.91046)"
         id="path5829" /></clipPath><clipPath
       clipPathUnits="userSpaceOnUse"
       id="clipPath5830"><path
         d="M -1068.99,1068.99 H 1068.99 V -1068.99 H -1068.99 Z"
         transform="matrix(0.99677607,0.06069237,-0.08023433,0.75400121,377.54247,224.69786)"
         id="path5830" /></clipPath><clipPath
       clipPathUnits="userSpaceOnUse"
       id="clipPath5831"><path
         d="M -1068.99,1068.99 H 1068.99 V -1068.99 H -1068.99 Z"
         transform="matrix(0.99972916,-0.01760496,0.02327383,0.75623565,387.41624,195.8555)"
         id="path5831" /></clipPath><clipPath
       clipPathUnits="userSpaceOnUse"
       id="clipPath5832"><path
         d="M -1068.99,1068.99 H 1068.99 V -1068.99 H -1068.99 Z"
         transform="matrix(0.98996344,-0.10690305,0.14132396,0.74884839,379.43491,162.95648)"
         id="path5832" /></clipPath><clipPath
       clipPathUnits="userSpaceOnUse"
       id="clipPath5833"><path
         d="M -1068.99,1068.99 H 1068.99 V -1068.99 H -1068.99 Z"
         transform="matrix(0.97392927,-0.17159913,0.22685171,0.73671875,368.88612,139.13173)"
         id="path5833" /></clipPath><clipPath
       clipPathUnits="userSpaceOnUse"
       id="clipPath5834"><path
         d="M -1068.99,1068.99 H 1068.99 V -1068.99 H -1068.99 Z"
         transform="matrix(0.9525938,-0.23014284,0.30424499,0.72058018,363.15065,117.59937)"
         id="path5834" /></clipPath><clipPath
       clipPathUnits="userSpaceOnUse"
       id="clipPath5835"><path
         d="M -1068.99,1068.99 H 1068.99 V -1068.99 H -1068.99 Z"
         transform="matrix(0.91405986,-0.30679691,0.40557935,0.69143127,353.92005,89.439118)"
         id="path5835" /></clipPath><clipPath
       clipPathUnits="userSpaceOnUse"
       id="clipPath5836"><path
         d="M -1068.99,1068.99 H 1068.99 V -1068.99 H -1068.99 Z"
         transform="translate(159.35766,-46.769236)"
         id="path5836" /></clipPath><clipPath
       clipPathUnits="userSpaceOnUse"
       id="clipPath5837"><path
         d="M -1068.99,1068.99 H 1068.99 V -1068.99 H -1068.99 Z"
         transform="translate(476.68482,-61.707098)"
         id="path5837" /></clipPath><clipPath
       clipPathUnits="userSpaceOnUse"
       id="clipPath5838"><path
         d="M -1068.99,1068.99 H 1068.99 V -1068.99 H -1068.99 Z"
         transform="translate(195.52201,-61.707076)"
         id="path5838" /></clipPath><clipPath
       clipPathUnits="userSpaceOnUse"
       id="clipPath5839"><path
         d="M -1068.99,1068.99 H 1068.99 V -1068.99 H -1068.99 Z"
         transform="translate(130.59766,-3.6353305e-5)"
         id="path5839" /></clipPath><clipPath
       clipPathUnits="userSpaceOnUse"
       id="clipPath5840"><path
         d="M -1068.99,1068.99 H 1068.99 V -1068.99 H -1068.99 Z"
         transform="translate(161.92382,118.584)"
         id="path5840" /></clipPath><clipPath
       clipPathUnits="userSpaceOnUse"
       id="clipPath5841"><path
         d="M -1068.99,1068.99 H 1068.99 V -1068.99 H -1068.99 Z"
         transform="translate(-182.82848,81.523484)"
         id="path5841" /></clipPath><clipPath
       clipPathUnits="userSpaceOnUse"
       id="clipPath5842"><path
         d="M -1068.99,1068.99 H 1068.99 V -1068.99 H -1068.99 Z"
         transform="translate(-213.95039,-50.499063)"
         id="path5842" /></clipPath><clipPath
       clipPathUnits="userSpaceOnUse"
       id="clipPath5843"><path
         d="M -1068.99,1068.99 H 1068.99 V -1068.99 H -1068.99 Z"
         transform="translate(119.58773,-105.43949)"
         id="path5843" /></clipPath><clipPath
       clipPathUnits="userSpaceOnUse"
       id="clipPath5844"><path
         d="M -1068.99,1068.99 H 1068.99 V -1068.99 H -1068.99 Z"
         transform="translate(-20.433569,54.561079)"
         id="path5844" /></clipPath><clipPath
       clipPathUnits="userSpaceOnUse"
       id="clipPath5845"><path
         d="M -1068.99,1068.99 H 1068.99 V -1068.99 H -1068.99 Z"
         transform="translate(81.674981,-33.369207)"
         id="path5845" /></clipPath><clipPath
       clipPathUnits="userSpaceOnUse"
       id="clipPath5846"><path
         d="M -1068.99,1068.99 H 1068.99 V -1068.99 H -1068.99 Z"
         transform="translate(260.06355,448.13477)"
         id="path5846" /></clipPath><clipPath
       clipPathUnits="userSpaceOnUse"
       id="clipPath5846-0"><path
         d="M -1068.99,1068.99 H 1068.99 V -1068.99 H -1068.99 Z"
         transform="translate(260.06355,448.13477)"
         id="path5846-6" /></clipPath></defs><g
     inkscape:label="Camada 1"
     inkscape:groupmode="layer"
     id="layer1"
     transform="translate(-360.45315,-187.98015)"><g
       id="g5877"
       clip-path="url(#clipPath5877)"
       transform="matrix(0.26458333,0,0,0.26458333,291.31019,160.0586)"><path
         d=""
         style="fill:#1e130f;fill-opacity:1;fill-rule:nonzero;stroke:none"
         aria-label=" "
         transform="matrix(0.07529405,-0.07292863,0.09641023,0.0995374,73.966516,139.48516)"
         clip-path="url(#clipPath5824)"
         id="path5855" /><path
         d=""
         style="fill:#1e130f;fill-opacity:1;fill-rule:nonzero;stroke:none"
         aria-label=" "
         transform="matrix(0.0946991,-0.04494284,0.05941366,0.1251905,81.313448,133.99629)"
         clip-path="url(#clipPath5827)"
         id="path5858" /><g
         id="g69"
         transform="translate(0,-1.306675)"
         inkscape:export-filename="comandas\Comanda3.0\images\logo.svg"
         inkscape:export-xdpi="52.93"
         inkscape:export-ydpi="52.93"><path
           d="m 0,0 -927.433,927.433 c -55.121,55.121 -145.319,55.121 -200.44,0 L -2055.306,0 c -55.121,-55.121 -55.121,-145.319 0,-200.44 l 927.433,-927.433 c 55.121,-55.121 145.319,-55.121 200.44,0 L 0,-200.44 C 55.121,-145.319 55.121,-55.121 0,0"
           style="fill:#fed600;fill-opacity:1;fill-rule:nonzero;stroke:none"
           transform="matrix(0.04332768,-0.00349035,0.00349035,0.04332768,352.54061,153.92951)"
           clip-path="url(#clipPath5816)"
           id="path5847"
           inkscape:export-filename="comandas\Comanda3.0\images\logo.svg"
           inkscape:export-xdpi="13.74601"
           inkscape:export-ydpi="13.74601" /><path
           d="m 0,0 -821.181,821.181 c -55.121,55.121 -145.319,55.121 -200.439,0 L -1842.801,0 c -55.121,-55.121 -55.121,-145.319 0,-200.44 l 821.181,-821.18 c 55.12,-55.121 145.318,-55.121 200.439,0 L 0,-200.44 C 55.121,-145.319 55.121,-55.121 0,0"
           style="fill:#1e130f;fill-opacity:1;fill-rule:nonzero;stroke:none"
           transform="matrix(0.04332768,-0.00349035,0.00349035,0.04332768,347.93694,154.30038)"
           clip-path="url(#clipPath5817)"
           id="path5848" /><path
           d="m 0,0 -737.184,737.184 c -55.121,55.121 -145.319,55.121 -200.44,0 L -1674.808,0 c -55.121,-55.121 -55.121,-145.319 0,-200.44 l 737.184,-737.184 c 55.121,-55.121 145.319,-55.121 200.44,0 L 0,-200.44 C 55.121,-145.319 55.121,-55.121 0,0"
           style="fill:#fed600;fill-opacity:1;fill-rule:nonzero;stroke:none"
           transform="matrix(0.04332768,-0.00349035,0.00349035,0.04332768,344.29756,154.59355)"
           clip-path="url(#clipPath5818)"
           id="path5849" /><path
           d="m 26.536031,-40.705699 0.568438,-1.868002 c 4.076918,-0.36549 7.598711,-0.880388 10.555665,-1.571908 -0.745446,2.020948 -1.522191,4.603058 -2.339951,7.719117 l -2.994735,11.940627 3.764638,0.165465 c 1.774388,0.104776 3.743411,-0.326574 5.86138,-1.313915 2.199637,-0.974822 4.127288,-2.711651 5.730426,-5.14136 1.675092,-2.444405 2.530628,-5.130202 2.511202,-8.104473 -0.01655,-2.858066 -1.012392,-5.107343 -3.023508,-6.740484 -2.06652,-1.680223 -5.178534,-2.50455 -9.391446,-2.520063 -4.863376,5.44e-4 -9.570613,1.195531 -14.157687,3.59231 -4.642479,2.349698 -8.192335,5.381392 -10.659283,9.067865 -2.49321,3.721037 -3.6952051,7.382746 -3.632247,11.01969 -0.081309,1.826908 0.1748467,3.409702 0.768467,4.748383 0.646147,1.269556 1.870805,2.537751 3.673974,3.804586 1.310283,1.075516 1.967224,2.050884 1.990249,2.98053 0.01727,0.697236 -0.167654,1.260575 -0.646149,1.650287 -0.425968,0.320586 -0.900506,0.5051 -1.50528,0.541024 -1.781223,-0.01578 -3.427892,-1.168591 -4.9302919,-3.431203 -1.5578048,-2.309694 -2.335627,-5.245865 -2.3500161,-8.746736 -0.030937,-6.358937 2.436731,-12.206241 7.340764,-17.500002 6.553582,-6.944592 15.27226,-10.418792 26.064653,-10.462334 4.10498,0.03756 7.499054,0.570689 10.165672,1.661174 2.630641,1.097832 4.619451,2.560339 5.894477,4.402216 1.275025,1.841876 1.921891,3.870444 1.993125,6.016578 -0.03886,2.810985 -0.956632,5.538692 -2.799018,8.163257 -1.832672,2.651779 -4.582039,4.790021 -8.192695,6.461807 -3.646634,1.679133 -7.656636,2.556527 -12.049433,2.577754 -0.732132,0.0035 -1.790937,-0.043 -3.150149,-0.174173 l -3.469633,13.2055565 c -0.451872,2.1945761 -1.067081,4.3641148 -1.826197,6.5630452 2.217624,0.4814245 4.148512,0.7002292 5.802377,0.6836286 2.062204,0.045993 4.259681,-0.2860237 6.592433,-0.9960493 l -0.556925,2.33282564 c -2.182008,0.59164264 -4.010002,0.8773945 -5.546222,0.89916589 -1.473979,-0.0201389 -3.575038,-0.17498961 -6.339154,-0.45720419 -2.276987,-0.32330839 -4.15247,-0.49503204 -5.580759,-0.49530437 -2.774909,0.01197401 -5.586875,0.352699 -8.435897,1.02217498 l 0.413017,-2.30343405 c 2.998687,-0.4664559 5.069886,-1.1522606 6.203882,-2.0846288 1.416057,-1.2235631 2.653669,-3.8122048 3.712835,-7.7659251 l 6.281604,-25.22565 c 0.259035,-1.220842 0.418774,-2.071023 0.479215,-2.550542 -0.08347,-0.450127 -0.310841,-0.870863 -0.754078,-1.247512 -0.371283,-0.391344 -0.746523,-0.577491 -1.135435,-0.585656 -0.23529,-0.01034 -0.542534,-0.006 -0.902304,0.06749 z m 0,0"
           style="fill:#1e130f;fill-opacity:1;fill-rule:nonzero;stroke:none"
           aria-label="P"
           transform="matrix(0.01133062,-0.04196531,0.05547735,0.01497886,280.21091,152.39687)"
           clip-path="url(#clipPath5819)"
           id="path5850" /><path
           d="M 15.180856,0.01910151 8.8972722,0.03114851 12.048778,-11.324217 c 1.291973,-5.680483 2.505386,-11.061902 3.605797,-16.133492 0.342704,-1.144149 0.463106,-1.883303 0.409881,-2.202175 0.04554,-0.654753 -0.277231,-0.950372 -0.982554,-0.912909 -0.346685,-0.04414 -1.021268,0.197221 -2.00952,0.750131 -0.91937,0.53138 -2.475754,1.963394 -4.7522654,4.291522 L 7.05293,-26.965097 c 2.7114341,-2.860585 5.391556,-5.040364 8.040366,-6.539337 2.731924,-1.494452 4.824556,-2.240062 6.361012,-2.232308 0.533119,0.01636 0.922498,0.13866 1.168137,0.366887 0.328752,0.232749 0.485299,0.519325 0.455412,0.833676 -0.0074,0.429325 -0.165946,1.393907 -0.481611,2.956615 l -1.93326,7.680482 c 2.915523,-4.479919 6.172603,-8.334582 9.791453,-11.600806 1.617011,-1.542468 3.010298,-2.313485 4.228532,-2.297766 0.837109,-0.01765 1.541008,0.311339 2.117675,0.924108 0.617085,0.539133 0.958644,1.16439 1.024677,1.875769 0.0054,0.821833 -0.275246,1.489074 -0.856186,1.97567 -0.601149,0.523414 -2.051362,1.190222 -4.399312,1.985137 -2.032005,0.635157 -3.680609,1.45548 -4.974274,2.408864 -1.313874,0.990201 -2.778891,2.51566 -4.443723,4.561088 -1.581719,2.04995 -2.65508,3.849496 -3.185643,5.387875 -0.593467,1.497039 -1.544441,4.996877 -2.804249,10.5148018 z m 0,0"
           style="fill:#1e130f;fill-opacity:1;fill-rule:nonzero;stroke:none"
           aria-label="r"
           transform="matrix(0.01660044,-0.04017331,0.05310844,0.02194548,280.73787,150.53139)"
           clip-path="url(#clipPath5820)"
           id="path5851" /><path
           d="m 36.438223,-36.498232 2.710463,-0.48313 -3.252468,10.743162 c -1.214133,4.299766 -2.413956,9.204679 -3.581526,14.739443 -0.511308,3.0428101 -0.794989,4.9939784 -0.8331,5.8782115 -0.0022,0.9336454 0.338697,1.4030621 1.00482,1.3835438 0.416327,-0.012199 1.134871,-0.3108039 2.09031,-0.8686693 1.741121,-1.1738364 3.439906,-2.5230556 5.063693,-4.0340845 l 1.350782,1.6257257 c -3.218137,2.9454997 -5.227406,4.7453746 -6.129016,5.3773584 -1.901202,1.30468647 -3.655224,2.22658193 -5.258843,2.82867164 C 28.623505,1.099189 27.648714,1.2791429 26.631586,1.2837141 25.911634,1.2291139 25.3191,1.0572366 24.868703,0.72980315 24.483629,0.37522379 24.273352,-0.14848471 24.255817,-0.81661619 c 0.01008,-0.45446961 0.147587,-1.02621631 0.44517,-1.72881301 l 1.642768,-5.7000802 C 23.853838,-5.409659 20.913524,-2.9012421 17.522813,-0.72025865 15.621611,0.58442779 13.771421,1.2568221 12.022848,1.3080574 10.386976,1.2802947 9.087799,0.66233283 8.1253166,-0.54582826 7.0422736,-2.1541671 6.5047933,-4.182202 6.4116669,-6.6521993 c 0.06232,-3.0170378 0.8758447,-6.3462537 2.4226314,-10.0123537 1.5762227,-3.742658 3.7072757,-7.072631 6.3604987,-9.976347 2.682658,-2.980273 5.505229,-5.182457 8.467713,-6.606552 2.381034,-1.053811 5.338068,-1.607246 8.856382,-1.622025 0.883259,-0.01326 1.802403,0.02288 2.808038,0.119576 z m -5.398386,6.617545 c -1.500185,-0.309289 -2.726181,-0.475221 -3.761252,-0.495356 -2.501187,0.01021 -4.699156,0.73064 -6.629794,2.111885 -1.945355,1.419524 -3.716729,3.956769 -5.346781,7.625309 -1.698599,3.6327 -2.531884,7.22743 -2.514572,10.822468 0.01349,1.8919969 0.334248,3.2703528 0.944317,4.1103616 0.72922,0.8869813 1.635056,1.3146134 2.670127,1.3347483 1.900386,-0.017836 3.963077,-1.1001669 6.173354,-3.2087144 2.246164,-2.0591352 3.875808,-5.0842495 4.936312,-9.1271955 z m 0,0"
           style="fill:#1e130f;fill-opacity:1;fill-rule:nonzero;stroke:none"
           aria-label="a"
           transform="matrix(0.0209298,-0.03809742,0.05036413,0.02766882,281.12208,149.55655)"
           clip-path="url(#clipPath5821)"
           id="path5852" /><path
           d="m 25.453207,-53.924608 c 0.848371,0.03701 1.578156,0.341249 2.127987,0.944721 0.570978,0.626682 0.792823,1.36691 0.748051,2.211902 0.06719,1.265918 -0.33418,2.365287 -1.131123,3.328532 -0.869922,0.932821 -1.853878,1.34309 -2.992089,1.286012 -0.857907,0.0022 -1.535861,-0.294827 -2.043397,-0.851878 -0.507536,-0.557052 -0.781212,-1.304494 -0.83264,-2.304745 0.01533,-1.274701 0.437842,-2.350859 1.215712,-3.23569 0.704892,-0.915255 1.698384,-1.364731 2.907499,-1.378854 z M 8.7830013,-25.924993 6.8540416,-27.247358 c 2.9758965,-3.092047 5.5674244,-5.264763 7.8052674,-6.534146 2.256916,-1.347798 4.196219,-2.050715 5.86974,-2.101538 0.848371,0.03701 1.52425,0.23241 1.996953,0.602208 0.555219,0.361015 0.85543,0.889211 0.900635,1.584588 -0.07546,0.860988 -1.027864,4.335997 -2.847687,10.385819 -3.040087,10.0753 -4.508703,16.1132011 -4.42492,18.1921172 -0.034,0.3600782 0.01452,0.7113733 0.185774,0.9986818 0.274915,0.301736 0.505461,0.4554263 0.753006,0.4290775 0.919275,-0.034194 3.250409,-1.7972739 6.962717,-5.2732415 l 1.645343,1.6071664 c -3.896411,3.5719477 -6.733409,5.8726379 -8.541679,6.91806738 C 15.362532,0.66928886 13.968076,1.2250975 12.893307,1.2376507 11.879906,1.2182106 11.025312,0.87633028 10.350671,0.23522033 9.7796934,-0.39146208 9.5346263,-1.2565257 9.5943228,-2.383181 c 0.00991,-3.5656494 2.1502282,-12.144801 6.3786572,-25.783877 0.213951,-0.659308 0.33585,-1.270625 0.335015,-1.817956 -0.03152,-0.531335 -0.285288,-0.80986 -0.761304,-0.835577 -0.598752,0.03827 -1.254723,0.311783 -2.010207,0.774118 -0.672969,0.453552 -2.267691,1.832711 -4.7534827,4.12148 z m 0,0"
           style="fill:#1e130f;fill-opacity:1;fill-rule:nonzero;stroke:none"
           aria-label="i"
           transform="matrix(0.02466724,-0.03579103,0.04731507,0.03260964,281.85833,148.24372)"
           clip-path="url(#clipPath5822)"
           id="path5853" /><path
           d="m 36.388305,-36.391068 2.703338,-0.55348 -3.150568,10.605213 c -1.26255,4.361933 -2.479909,9.286609 -3.708882,14.810526 -0.486836,3.049799 -0.729039,5.0547386 -0.746458,5.953601 0.03938,0.8623631 0.364315,1.2823431 1.027321,1.2631745 0.420219,0.025877 1.113158,-0.2714286 2.107218,-0.9101651 1.780755,-1.0702582 3.453711,-2.3671386 4.970614,-3.9336098 l 1.509836,1.6928583 c -3.355993,2.9331155 -5.452229,4.7238934 -6.288706,5.3723336 -1.902915,1.22272423 -3.589913,2.15876593 -5.060995,2.80812512 -1.174238,0.34766168 -2.274567,0.49988888 -3.22006,0.44166658 -0.71981,0.055668 -1.260658,-0.07763 -1.646668,-0.42137665 -0.33776,-0.3007786 -0.496557,-0.79052249 -0.476392,-1.46923166 -0.03817,-0.38232299 -0.0024,-0.96008039 0.188145,-1.74828719 L 26.37595,-8.2096946 C 23.881776,-5.423495 20.973189,-2.9627927 17.650189,-0.82758773 15.605266,0.48638455 13.681287,1.1678506 11.930779,1.220045 10.298154,1.1595071 9.0646829,0.58358761 8.2062409,-0.52919765 7.0314195,-2.1414305 6.4573101,-4.1766391 6.4313851,-6.638058 c 0.029663,-2.9779582 0.8374704,-6.307971 2.4518229,-10.008286 1.585951,-3.682067 3.73962,-6.989198 6.461009,-9.921395 2.644735,-2.956915 5.422611,-5.185684 8.333628,-6.686306 2.310306,-1.077646 5.223753,-1.618188 8.740343,-1.621625 0.897242,0.01525 1.871136,0.05523 2.845031,0.0952 z m -5.24428,6.476573 c -1.587119,-0.237722 -2.920154,-0.379805 -3.974977,-0.404762 -2.461766,0.02839 -4.652658,0.733421 -6.576953,2.154815 -1.915742,1.341925 -3.664451,3.834054 -5.250402,7.516121 -1.662604,3.657347 -2.476217,7.28698 -2.44084,10.8888988 -0.01499,1.8589427 0.288246,3.2175189 0.833054,4.0510097 0.59306,0.8764592 1.471667,1.3105353 2.611696,1.2807441 1.871136,0.055226 3.967056,-0.9956242 6.259358,-3.1343026 2.340553,-2.09571 3.991544,-5.153816 5.001224,-9.13135 z m 0,0"
           style="fill:#1e130f;fill-opacity:1;fill-rule:nonzero;stroke:none"
           aria-label="a"
           transform="matrix(0.02814131,-0.03312909,0.04379606,0.03720233,282.31065,147.55046)"
           clip-path="url(#clipPath5823)"
           id="path5854" /><path
           d="m 40.130682,-8.7462617 1.081331,1.5101543 c -3.818401,3.2861511 -6.614385,5.4588337 -8.335604,6.51343795 C 30.167931,0.63961672 28.147158,1.2991884 26.814091,1.2560456 26.081224,1.3205848 25.498056,1.1512011 25.04146,0.76999841 24.620178,0.4458875 24.442352,-0.02006663 24.520169,-0.54866831 c -0.02078,-0.47978399 0.09594,-1.27268649 0.3794,-2.36121359 l 1.547606,-5.1129689 c -3.420246,3.6323659 -6.278266,6.0914532 -8.515616,7.41224994 C 15.711241,0.64849412 13.661247,1.2905719 11.752357,1.2981384 10.262247,1.2688255 9.0240298,0.63537929 8.060832,-0.62430401 7.0745075,-1.8618834 6.6188461,-3.7883475 6.6475943,-6.3594884 6.6078979,-10.409579 7.9145498,-15.019714 10.672245,-20.199114 c 2.676127,-5.192284 5.710407,-9.091669 9.138156,-11.641063 3.427748,-2.549395 6.602512,-3.812273 9.495068,-3.806129 0.506444,0.0156 1.35135,0.161936 2.610193,0.412288 1.352748,-5.517221 2.646118,-9.524169 3.874018,-12.060441 1.14633,-2.549157 2.690816,-4.752098 4.610329,-6.586721 1.965767,-1.87883 4.214056,-3.300927 6.767992,-4.288392 2.472368,-1.00035 4.75613,-1.502477 6.880505,-1.488885 1.117582,0.02199 2.039213,0.3221 2.683324,0.887462 0.562542,0.552478 0.881629,1.246799 0.852566,2.092184 0.01844,0.981672 -0.313771,1.753416 -0.915064,2.328117 -0.55504,0.530493 -1.414478,0.806852 -2.532061,0.784867 -0.634265,0.01572 -1.851699,-0.137941 -3.681521,-0.478481 -2.085467,-0.277892 -3.459943,-0.417724 -4.100303,-0.441601 -0.983666,-0.01371 -1.889357,0.306855 -2.717074,0.961698 -0.752242,0.628129 -1.453229,1.934031 -2.044519,3.952694 -0.36987,1.21654 -1.441661,5.284244 -3.22147,12.163513 l -5.921647,25.645694 c -0.712861,2.9524624 -1.048508,4.9084778 -1.006941,5.8680457 -0.03875,1.1271791 0.343622,1.7155909 1.222593,1.7385214 0.477222,-0.00189 1.034763,-0.1713945 1.718876,-0.5527163 1.032262,-0.532385 2.949433,-1.8651199 5.745417,-4.0378025 z M 30.923096,-30.651542 c -2.145159,-0.493376 -3.671834,-0.760276 -4.684721,-0.79148 -1.908891,0.0076 -3.725117,0.789595 -5.4779,2.328594 -1.811225,1.50401 -3.566194,4.407774 -5.247874,8.649591 -1.693868,4.16262 -2.581897,7.872998 -2.647053,11.0694301 0.01,1.4439619 0.349873,2.6180671 1.071959,3.5177057 0.757401,0.9567305 1.674188,1.3977433 2.756455,1.3626362 1.117582,0.021985 2.493152,-0.5205659 4.109675,-1.5659503 2.230006,-1.5408897 3.980288,-3.4408783 5.26788,-5.7616677 0.700987,-1.305902 1.713244,-4.72621 2.978329,-10.295913 z m 0,0"
           style="fill:#1e130f;fill-opacity:1;fill-rule:nonzero;stroke:none"
           aria-label="d"
           transform="matrix(0.03408465,-0.02697603,0.0356618,0.04505928,283.8226,145.86843)"
           clip-path="url(#clipPath5825)"
           id="path5856" /><path
           d="m 36.305055,-36.387672 2.734778,-0.600898 -3.083412,10.695247 c -1.274199,4.351602 -2.420074,9.254255 -3.488743,14.717655 -0.712948,3.0943715 -1.081787,5.0959945 -1.068216,5.9565054 -0.0056,0.8846927 0.352704,1.3099292 1.074851,1.2757095 0.351497,-0.00502 0.99674,-0.2712481 2.018813,-0.7938967 1.743767,-1.0499738 3.448932,-2.3803209 5.083525,-4.0055276 l 1.433135,1.700946 c -3.269489,2.9216763 -5.287398,4.7017841 -6.155964,5.3597145 -1.928941,1.22894276 -3.628074,2.16770269 -5.161335,2.78730708 C 28.625478,1.0102157 27.603103,1.2041273 26.625363,1.2868249 25.960668,1.2484989 25.391727,1.0892633 24.93769,0.78493636 24.521955,0.43224557 24.291393,-0.09941414 24.297123,-0.81973836 24.296821,-1.1484754 24.468876,-1.6948496 24.7302,-2.4636517 l 1.656308,-5.8214517 C 23.839166,-5.3976468 20.91439,-2.9112449 17.548243,-0.85487018 15.600302,0.56262305 13.792297,1.2548872 12.053958,1.2557999 10.417857,1.2373213 9.1071663,0.64338186 8.0899186,-0.54050487 6.9764651,-2.0965876 6.4441669,-4.1122407 6.4993574,-6.6503142 c -0.06665,-2.987606 0.7355677,-6.3044058 2.3427173,-9.9793708 1.5815143,-3.752302 3.6874863,-7.069786 6.3562173,-10.000815 2.707031,-2.979394 5.504237,-5.195004 8.429918,-6.695195 2.344526,-1.04062 5.271112,-1.5546 8.843693,-1.512966 0.920289,-0.01015 1.885362,0.03285 2.863253,0.114521 z m -5.336857,6.519533 c -1.425444,-0.284479 -2.67823,-0.457859 -3.758359,-0.520139 -2.460485,0.03513 -4.639139,0.756598 -6.567929,2.149909 -1.915973,1.431979 -3.690351,3.946784 -5.310318,7.583081 -1.639118,3.660479 -2.453851,7.267347 -2.49532,10.8302999 -0.04298,1.9192676 0.233125,3.3259245 0.847455,4.1957887 0.716567,0.850473 1.611673,1.2560902 2.685317,1.2168516 1.898179,0.071519 3.904024,-0.9254144 6.055837,-3.039164 2.25405,-2.1331408 3.983191,-5.1942052 5.206573,-9.2073752 z m 0,0"
           style="fill:#1e130f;fill-opacity:1;fill-rule:nonzero;stroke:none"
           aria-label="a"
           transform="matrix(0.03728904,-0.02233825,0.02953078,0.04929546,285.04315,144.89718)"
           clip-path="url(#clipPath5826)"
           id="path5857" /><path
           d="m 43.633882,-34.491025 -2.215947,0.0048 c 0.269997,-2.858162 0.406972,-5.094082 0.446055,-6.698355 0.05211,-2.139031 -0.530883,-3.850048 -1.713849,-5.123646 -1.112706,-1.254787 -2.724338,-1.865686 -4.810028,-1.885844 -3.075841,-0.01613 -5.756178,1.15012 -8.098838,3.453366 -2.317792,2.250099 -3.498995,4.774595 -3.531174,7.546915 -0.0018,1.524552 0.306686,2.892948 0.937836,4.078612 0.583587,1.202833 2.01621,2.8722 4.310305,4.981527 3.935326,3.924252 6.523876,7.00949 7.695392,9.236903 1.241775,2.246224 1.896605,4.39511 1.919097,6.374699 0.0067,3.1116569 -0.949712,6.0850694 -2.904366,8.9108319 C 33.783971,-0.76666997 31.05054,1.6113694 27.432942,3.5134696 23.885604,5.4343805 20.091373,6.3622119 16.002686,6.3141323 11.889131,6.3192 8.4383118,5.245796 5.6626617,3.0673468 2.9324039,0.96085554 1.5706339,-1.1978846 1.6270866,-3.5151681 1.562357,-4.7285996 1.9397109,-5.7040615 2.6888884,-6.4603645 3.3926736,-7.2886256 4.240727,-7.7493337 5.2206149,-7.8159152 c 0.8371972,-0.015077 1.605712,0.3700938 2.3304119,1.1023641 0.388006,0.5225167 0.787852,1.5266439 1.2449302,3.0843395 0.353266,1.9485374 0.8498165,3.33738583 1.499914,4.22909794 0.720358,0.91052286 1.610444,1.62726726 2.635131,2.14082786 1.119813,0.479224 2.434224,0.7115223 3.943231,0.6968948 3.970864,0.046437 7.480307,-1.2865686 10.56346,-3.98961222 3.072889,-2.76559618 4.630852,-5.75737028 4.698755,-9.02846928 -0.03177,-1.1148995 -0.216495,-2.2408475 -0.624432,-3.3966535 -0.420371,-1.129233 -1.167174,-2.405666 -2.170147,-3.810489 -0.73062,-0.973076 -2.303763,-2.680064 -4.731863,-5.094391 -2.370274,-2.368943 -3.910459,-3.9774 -4.550294,-4.806559 -0.912189,-1.260908 -1.588732,-2.51853 -2.029627,-3.772868 -0.451159,-1.31689 -0.66667,-2.630496 -0.656798,-4.003369 0.04027,-2.620642 0.963131,-5.184402 2.688058,-7.772644 1.749794,-2.641389 3.98055,-4.705472 6.704702,-6.218822 2.781979,-1.467966 5.94762,-2.235162 9.436928,-2.257847 1.674395,-0.03015 3.836265,0.249621 6.440218,0.767364 1.500323,0.341878 2.779603,0.564771 3.802712,0.659274 -0.589321,1.935398 -1.044042,3.667612 -1.353901,5.259195 -0.344989,1.582178 -0.811754,4.776391 -1.458122,9.537257 z m 0,0"
           style="fill:#1e130f;fill-opacity:1;fill-rule:nonzero;stroke:none"
           aria-label="S"
           transform="matrix(0.04097713,-0.01450326,0.01917305,0.05417103,287.01098,143.78776)"
           clip-path="url(#clipPath5828)"
           id="path5859" /><path
           d="m 25.408379,-53.954447 c 0.913203,0.01961 1.61406,0.348694 2.147457,0.966365 0.597267,0.658152 0.933862,1.414235 0.973532,2.26172 -0.08119,1.231396 -0.571494,2.302165 -1.470924,3.212307 -0.83556,0.950624 -1.741877,1.395891 -2.727584,1.363221 -0.921835,0.0078 -1.684842,-0.245535 -2.216517,-0.746987 -0.550662,-0.562825 -0.806121,-1.333271 -0.793995,-2.345289 -0.0103,-1.30583 0.371248,-2.396189 1.18091,-3.264547 0.790676,-0.929732 1.75051,-1.423313 2.907121,-1.44679 z m -16.64942,28.064501 -1.8643301,-1.379 c 2.79325,-3.032071 5.3551431,-5.207523 7.7132991,-6.492404 2.339169,-1.346255 4.317517,-2.033075 5.862543,-2.073519 0.913203,0.01961 1.612339,0.232476 2.106041,0.611178 0.58347,0.336918 0.88037,0.854034 0.890699,1.551347 -0.07772,0.855317 -1.056662,4.330107 -2.990349,10.472685 -2.952351,9.986917 -4.39059,16.0158995 -4.323351,18.1143697 -0.04835,0.3969712 0.01033,0.6973134 0.15878,0.9558713 0.220953,0.2716178 0.403933,0.4204868 0.621443,0.4596668 1.011604,-0.049598 3.390493,-1.7654017 7.15393,-5.2022568 l 1.505257,1.5461382 c -3.879104,3.5609062 -6.727568,5.9165559 -8.500507,7.04605673 C 15.300488,0.78831333 13.907356,1.3197531 12.92165,1.287084 11.891059,1.2753071 11.081446,0.92663139 10.484179,0.26847899 9.8420271,-0.36878119 9.503711,-1.2410836 9.4692304,-2.3484281 9.4348487,-5.8898396 11.612043,-14.509571 15.919677,-28.19326 c 0.20718,-0.658134 0.279709,-1.25359 0.262468,-1.807263 0.04663,-0.51319 -0.174322,-0.784807 -0.662859,-0.814853 -0.605925,-0.02221 -1.253291,0.208903 -1.905846,0.69988 -0.697439,0.511868 -2.285677,1.906457 -4.854481,4.22555 z m 0,0"
           style="fill:#1e130f;fill-opacity:1;fill-rule:nonzero;stroke:none"
           aria-label="i"
           transform="matrix(0.04228566,-0.01006941,0.01331155,0.05590088,288.5752,143.25286)"
           clip-path="url(#clipPath5829)"
           id="path5860" /><path
           d="m 25.016113,-10.308491 1.602756,1.6814921 c -2.338132,2.4547647 -5.0143,4.7252945 -7.948972,6.7927848 -2.97742,2.09080538 -5.458826,3.1001542 -7.456143,3.0836979 C 10.313021,1.2247065 9.5574136,0.87504108 9.0264654,0.18168308 8.4527691,-0.48835976 8.1653762,-1.4374224 8.1275017,-2.6700155 c 0.05451,-2.1922012 0.9399671,-6.852637 2.6871933,-13.9489705 l 4.571812,-18.515446 c 1.644849,-6.794762 3.064194,-11.304061 4.258037,-13.527898 1.675917,-3.592573 4.116425,-6.348911 7.352349,-8.236677 3.199139,-1.892276 6.648885,-2.840001 10.275668,-2.852194 1.206941,0.0052 2.121614,0.317267 2.823555,0.917364 0.659193,0.623413 1.000252,1.322043 1.065926,2.072577 -0.117244,0.899446 -0.468132,1.656014 -1.08945,2.265195 -0.646177,0.549018 -1.60654,0.802499 -2.88705,0.788267 -0.827163,-0.01576 -2.041074,-0.164606 -3.678517,-0.451061 -1.385911,-0.227055 -2.605785,-0.348079 -3.702369,-0.339758 -1.139333,0.03164 -1.98934,0.298648 -2.592769,0.824351 -0.859918,0.665595 -1.617376,2.086233 -2.278338,4.289742 -0.685821,2.143346 -1.788041,6.405962 -3.355371,12.838988 l -4.233858,17.643064 c -2.054276,9.0576699 -3.062015,13.7602254 -3.029178,14.1354923 0.005,0.8573262 0.332156,1.268678 0.938608,1.2573704 0.674059,0.02554 1.57874,-0.3204394 2.640472,-1.0469579 2.313354,-1.4583097 4.68533,-3.3663423 7.121891,-5.7519238 z m 0,0"
           style="fill:#1e130f;fill-opacity:1;fill-rule:nonzero;stroke:none"
           aria-label="l"
           transform="matrix(0.04290794,-0.00695546,0.00919499,0.05672352,289.39932,143.05442)"
           clip-path="url(#clipPath5830)"
           id="path5861" /><path
           d="m 27.014459,-31.597156 c -2.165433,3.463969 -3.701561,6.503393 -4.575433,9.176166 -0.795209,2.619704 -1.216246,5.227355 -1.190827,7.854313 -0.0012,2.484634 0.493004,6.3177343 1.521796,11.4727677 6.331336,-4.7520338 10.772665,-9.1905117 13.398396,-13.3122157 2.59278,-4.1796 3.871683,-7.766613 3.801633,-10.790792 0.06168,-0.816148 -0.227412,-1.929817 -0.795,-3.309645 -0.790815,-1.389481 -1.235108,-2.425157 -1.25847,-3.103808 -0.06057,-0.68026 0.170123,-1.26322 0.7314,-1.775412 0.63994,-0.565262 1.297942,-0.875626 2.01121,-0.929486 0.89291,0.03862 1.607224,0.464797 2.147196,1.222259 0.618635,0.704395 0.927918,2.044817 0.892771,3.991514 0.02849,6.043531 -2.096639,11.937457 -6.412581,17.68017 C 32.054267,-6.4194292 25.378501,-1.0611197 17.259252,2.653603 17.059457,1.3461508 16.65453,-0.70428357 16.090185,-3.6086633 15.044412,-9.5267771 14.494991,-13.616383 14.479126,-15.875872 c 0.0022,-2.992818 0.669892,-5.900389 2.002981,-8.722713 1.411753,-2.875392 3.542073,-5.380888 6.390961,-7.516489 -5.008811,0.09398 -8.559217,0.646311 -10.727753,1.681933 -1.551993,0.779934 -2.3269435,1.649942 -2.2876469,2.611633 -0.029778,0.394003 0.1466569,1.022804 0.5994579,1.945907 0.134975,0.683478 0.241254,1.252775 0.318836,1.70789 -0.03403,0.450289 -0.214754,0.866 -0.540042,1.218988 -0.3210332,0.296702 -0.7823771,0.474396 -1.3819044,0.504939 -0.7068872,-0.03057 -1.3202225,-0.311209 -1.8750834,-0.871671 -0.550607,-0.616747 -0.8609706,-1.448985 -0.8545547,-2.521639 0.011751,-1.637124 0.5751894,-3.165685 1.6881891,-4.55754 1.073668,-1.36532 2.9445674,-2.413813 5.6126974,-3.145479 2.740413,-0.700305 6.385417,-1.02267 10.974343,-0.993628 1.735889,-0.743747 2.848854,-1.147376 3.376099,-1.20928 0.48366,0.02092 0.878021,0.235616 1.148007,0.614347 0.342269,0.410092 0.577177,0.759072 0.667521,1.045329 -0.06806,0.900578 -0.9525,1.737616 -2.576775,2.486189 z m 0,0"
           style="fill:#1e130f;fill-opacity:1;fill-rule:nonzero;stroke:none"
           aria-label="v"
           transform="matrix(0.04339717,-0.00248102,0.00327984,0.05737024,290.20984,142.899)"
           clip-path="url(#clipPath5831)"
           id="path5862" /><path
           d="m 29.748949,-10.641512 1.345774,1.8578739 C 24.051883,-2.1862569 18.08275,1.0850786 13.229091,1.0849102 11.139305,1.0973906 9.5943215,0.46319961 8.591853,-0.84579855 7.5848101,-2.2110684 7.032169,-4.4165004 7.010607,-7.437419 c -0.010503,-6.099839 1.852471,-12.11737 5.547153,-18.107134 4.118751,-6.743789 9.032698,-10.135496 14.704649,-10.17339 2.096648,0.07193 3.669678,0.591844 4.758572,1.586157 1.053986,1.02418 1.575206,2.383806 1.528751,4.108744 0.03022,1.749614 -0.611354,3.502235 -1.959637,5.287729 -1.271606,1.810169 -3.549766,3.638916 -6.869388,5.516107 -1.526197,0.974744 -4.971128,2.68831 -10.33708,5.112563 -0.397221,1.543559 -0.575846,3.020465 -0.535875,4.4307184 0.05309,2.0309728 0.355718,3.4572512 0.942778,4.2489694 0.663738,0.8163937 1.588441,1.1687724 2.778684,1.1134078 1.197104,0.029043 2.515542,-0.2864648 3.953026,-0.9746596 1.90501,-0.9076376 4.634086,-2.7008747 8.226709,-5.353305 z m -14.989773,-6.193857 c 4.614588,-2.022153 8.057831,-4.215759 10.366924,-6.582548 1.545695,-1.653465 2.310293,-3.270597 2.293794,-4.851396 -0.02167,-1.185167 -0.324897,-2.159541 -0.981773,-2.891527 -0.580199,-0.707311 -1.356121,-1.06661 -2.323194,-1.021626 -1.120426,-0.0044 -2.16935,0.411573 -3.181678,1.277687 -1.340222,0.966093 -2.448724,2.486253 -3.362702,4.562209 -1.354656,3.084934 -2.291018,6.26338 -2.811371,9.507201 z m 0,0"
           style="fill:#1e130f;fill-opacity:1;fill-rule:nonzero;stroke:none"
           aria-label="e"
           transform="matrix(0.04338608,0.00266791,-0.00352694,0.05735558,291.77753,142.81533)"
           clip-path="url(#clipPath5832)"
           id="path5863" /><path
           d="m 25.501008,-53.964316 c 0.917603,0.0672 1.621315,0.386626 2.159016,1.009854 0.489821,0.57164 0.780558,1.279813 0.883235,2.180277 -0.05782,1.232149 -0.559638,2.315012 -1.468594,3.244417 -0.829732,0.948946 -1.795538,1.400241 -2.897418,1.353885 -0.895555,0.04431 -1.625098,-0.215183 -2.114919,-0.786823 -0.521164,-0.539591 -0.78607,-1.307692 -0.757862,-2.308471 -0.06377,-1.275398 0.327482,-2.345752 1.173751,-3.21106 0.798389,-0.916897 1.832394,-1.40441 3.022791,-1.482079 z M 8.7758064,-25.735825 6.8234402,-27.225098 c 2.8873655,-3.119903 5.4978298,-5.353403 7.8682478,-6.704671 2.339076,-1.31922 4.27793,-1.994609 5.779707,-2.021998 0.917603,0.0672 1.599266,0.27511 2.09287,0.675307 0.55629,0.336101 0.80293,0.821242 0.750944,1.511184 0.0548,0.848876 -0.91641,4.322047 -2.902598,10.475272 -2.832345,10.068289 -4.276726,16.1032122 -4.248407,18.1521887 -0.0334,0.4028133 0.03275,0.7373601 0.198436,1.0036404 0.244911,0.2858201 0.456748,0.4043667 0.677881,0.3793492 0.974777,-0.024772 3.310394,-1.7426357 6.975505,-5.1215422 l 1.657523,1.5226294 C 21.868257,-3.730953 19.010829,-1.4125076 17.11229,-0.34264453 15.281949,0.6910005 13.842534,1.2243787 12.762703,1.2895385 11.734534,1.2348436 10.909231,0.87217266 10.286795,0.20152572 9.7490947,-0.42170257 9.4621404,-1.3013186 9.4627878,-2.4414921 c -0.00908,-3.476278 2.1774842,-12.0463829 6.5228452,-25.7061449 0.162552,-0.70245 0.231074,-1.308755 0.23691,-1.850962 -0.02551,-0.51016 -0.270418,-0.79598 -0.766075,-0.825412 -0.60071,0.01095 -1.273403,0.229572 -1.975709,0.679558 -0.623083,0.469527 -2.180953,1.928387 -4.7049526,4.408628 z m 0,0"
           style="fill:#1e130f;fill-opacity:1;fill-rule:nonzero;stroke:none"
           aria-label="i"
           transform="matrix(0.04298989,0.00642958,-0.00849983,0.05683188,292.98921,142.89519)"
           clip-path="url(#clipPath5833)"
           id="path5864" /><path
           d="M 15.15516,0.00341621 8.8986361,0.06341571 11.96381,-11.359024 c 1.404311,-5.630741 2.622166,-10.997097 3.634172,-16.037768 0.315271,-1.213249 0.503242,-1.969931 0.519167,-2.291109 -0.02135,-0.690873 -0.385266,-1.003036 -1.063919,-0.970335 -0.416141,0.01541 -1.091327,0.307985 -2.008655,0.93264 -0.861641,0.556962 -2.410925,1.987555 -4.6478525,4.29178 L 7.163788,-26.953244 c 2.657075,-2.928142 5.343946,-5.137956 8.060613,-6.629443 2.688824,-1.457639 4.765085,-2.170643 6.228783,-2.139011 0.497181,-7.38e-4 0.882986,0.133912 1.185261,0.370103 0.357962,0.168497 0.487214,0.464105 0.415601,0.852978 0.0094,0.403542 -0.191977,1.365191 -0.640508,2.891341 l -1.722613,7.828587 c 2.946018,-4.599843 6.175894,-8.526104 9.689627,-11.778786 1.694462,-1.456163 3.156208,-2.176706 4.385237,-2.161628 0.812889,0.03049 1.503461,0.285116 2.080166,0.791346 0.548861,0.540077 0.843661,1.124901 0.865006,1.815774 -0.03683,0.874778 -0.35904,1.568274 -0.877129,2.122612 -0.462401,0.486645 -1.876911,1.112038 -4.162488,1.890852 -2.048417,0.679156 -3.738872,1.52681 -5.043522,2.509114 -1.248962,0.914609 -2.728148,2.448628 -4.401265,4.595664 -1.617429,2.079342 -2.721752,3.836768 -3.259774,5.320793 -0.574315,1.490419 -1.489794,4.980108 -2.754885,10.4416129 z m 0,0"
           style="fill:#1e130f;fill-opacity:1;fill-rule:nonzero;stroke:none"
           aria-label="r"
           transform="matrix(0.0423356,0.00985732,-0.01303123,0.05596689,293.82326,143.01272)"
           clip-path="url(#clipPath5834)"
           id="path5865" /><path
           d="m 36.338797,-36.407097 2.721964,-0.602448 -3.221007,10.771632 c -1.303564,4.258905 -2.45187,9.193548 -3.422084,14.768 -0.634454,2.976195 -0.960144,4.9146095 -0.917244,5.8591195 -0.02926,0.8740332 0.32102,1.2889464 1.063162,1.2713407 0.305991,-0.021414 0.984659,-0.2611562 2.011342,-0.7724305 1.768387,-1.1261939 3.485629,-2.4479235 5.104231,-3.9824631 l 1.40111,1.6596526 c -3.298854,2.936073 -5.372795,4.6809945 -6.256988,5.2440914 -1.859732,1.26990693 -3.536775,2.25238781 -5.126119,2.91289417 C 28.46634,1.0487371 27.397195,1.2128153 26.454561,1.2238535 25.71242,1.2414592 25.167122,1.0873708 24.794008,0.70838593 24.410388,0.39193053 24.258779,-0.10554592 24.244187,-0.81859191 24.284388,-1.1578407 24.391273,-1.6940049 24.58768,-2.463013 l 1.768533,-5.7264443 c -2.488203,2.8106826 -5.45502,5.2703612 -8.900449,7.379036 C 15.4202,0.50612066 13.524864,1.1880406 11.745095,1.182136 10.165819,1.1827989 8.9870889,0.59928268 8.2194116,-0.63094211 7.0434541,-2.2308248 6.4598531,-4.2566589 6.4914447,-6.7443726 6.4787502,-9.668413 7.2712342,-12.985236 8.8337305,-16.685515 c 1.5396605,-3.66435 3.6405955,-6.96975 6.3028075,-9.916198 2.744874,-2.938501 5.599333,-5.129408 8.63371,-6.591374 2.204537,-1.122386 5.091828,-1.708939 8.686531,-1.706457 0.837135,0.01694 1.804429,0.05911 2.877222,0.07329 z m -5.334492,6.55274 c -1.526745,-0.311985 -2.826515,-0.475068 -3.876472,-0.52518 -2.50958,0.0383 -4.710908,0.741636 -6.603982,2.110001 -1.880744,1.394965 -3.667445,3.929977 -5.312604,7.622309 -1.599486,3.620475 -2.421665,7.214017 -2.419039,10.797901 -0.0092,1.8544715 0.313652,3.2325486 0.980864,4.1608327 0.607386,0.8844086 1.464147,1.2844756 2.617779,1.2174753 1.909928,0.031126 3.975624,-0.9648211 6.160098,-3.0676454 2.196804,-2.0762229 3.854731,-5.1446396 5.044114,-9.2239026 z m 0,0"
           style="fill:#1e130f;fill-opacity:1;fill-rule:nonzero;stroke:none"
           aria-label="a"
           transform="matrix(0.04101969,0.01438245,-0.0190133,0.0542273,294.84784,143.23381)"
           clip-path="url(#clipPath5835)"
           id="path5866" /><path
           d="m 0,0 -4.054,-0.324 -0.487,-5.622 h 3.027 L -1.838,-2.379 0,-2 Z m -55.481,44.922 c -16.599,0 -30.056,-13.457 -30.056,-30.056 0,-16.6 13.457,-30.056 30.056,-30.056 16.599,0 30.056,13.456 30.056,30.056 0,16.599 -13.457,30.056 -30.056,30.056 m -52.472,-49.301 h -2.378 c 0,0 17.148,-32.063 41.516,-34.164 25.083,-2.162 32.002,4.973 41.084,14.92 l -5.406,0.865 c 0,0 -16.173,-13.2 -35.894,-9.947 -19.722,3.254 -38.922,28.326 -38.922,28.326 m -171.902,24.002 1.297,-5.622 h 150.928 l 5.622,8.865 z m 45.408,-11.136 h -2.486 v -54.413 h 2.486 z m -96.222,-61.734 c 0,0 0,-5.045 6.631,-5.622 6.631,-0.576 87.104,-1.297 87.104,-1.297 v 5.766 c 0,0 -88.825,0.825 -93.735,1.153 m 33.731,28.975 c 0,0 -21.903,-19.605 -48.003,-12.974 -26.099,6.632 -42.381,42.043 -42.381,42.043 h -3.892 c 0,0 5.19,-34.258 40.868,-47.448 35.678,-13.19 56.652,13.406 58.598,17.731 z m -39.706,68.905 c -16.4,0 -29.695,-13.295 -29.695,-29.695 0,-16.4 13.295,-29.696 29.695,-29.696 16.401,0 29.696,13.296 29.696,29.696 0,16.4 -13.295,29.695 -29.696,29.695 m 23.081,-117.569 c 0,0 3.516,-26.992 55.957,-29.811 12.159,-0.741 18.018,-0.444 19.043,12.31 1.026,12.755 0,24.027 0,24.027 l -68.554,1.631 c 0,0 -7.471,0.149 -6.446,-8.157 m 115.803,-46.188 v 5.621 h -52.184 l -2.976,-5.621 z m 14.703,17.442 c 0,0 6.631,-0.144 6.92,2.45 0.288,2.595 0.721,33.588 0.721,33.588 h -54.346 l 0.865,-31.713 c 0,0 -1.153,-4.325 6.343,-4.325 z m 10.668,3.568 c 1.513,-1.189 5.297,1.73 5.297,1.73 0,0 23.894,16.866 24.975,27.461 v 2.703 c 0,0 -4.541,1.766 -6.163,1.585 -1.621,-0.18 -4.18,-1.441 -4.18,-1.441 l 0.092,-1.084 0.232,-1.223 c 0,0 0.217,-0.612 1.118,-0.54 0.9,0.072 1.693,-0.469 1.837,-0.973 0.145,-0.505 -0.864,-2.811 -4.468,-2.631 -0.361,0.072 -0.901,6.487 -0.901,6.487 0,0 -12.938,0.757 -18.38,-0.18 0,0 -0.973,-30.705 0.541,-31.894 m -43.679,52.188 h -11.784 c 0,0 -0.865,-4.293 5.73,-4.293 6.595,0 6.054,4.293 6.054,4.293 m 84.618,-8.906 c 0,0 -47.318,-1.063 -54.237,-1.063 -6.92,0 -48.76,1.063 -48.76,1.063 v -5.334 h 102.997 z m 3.604,31.569 h -3.604 v -24.218 h 3.604 z m 0,-35.461 c 0,0 42.309,0 55.355,10.651 0,0 -50.742,-7.768 -55.355,-5.174 z M -404.908,2.541 c -5.911,0 -5.983,2.739 -5.983,2.739 0.145,2.595 10.235,3.099 10.163,3.892 -0.072,0.793 -1.73,1.153 -7.135,0.865 -5.406,-0.289 -6.271,-2.307 -6.271,-4.757 0,-2.451 2.955,-5.262 8.811,-5.767 5.856,-0.504 5.532,2.595 5.532,2.595 0,0 0.793,0.433 -5.117,0.433 M 3.91,-1.496 c 0,0 1.586,-16.145 -3.459,-16.145 -5.046,0 -3.748,4.901 -3.748,4.901 0,0 0.72,3.893 -3.748,3.749 -4.469,-0.145 -3.604,-15.281 -3.604,-15.281 l -5.046,-0.432 c 0,0 -0.576,-1.442 -3.604,-4.757 -7.351,-6.487 -10.379,-3.892 -10.379,-3.892 0,0 -4.757,-11.821 -36.867,-23.642 -32.11,-11.82 -61.301,-12.685 -61.301,-12.685 0,0 -19.244,-26.164 -28.758,-33.948 -9.515,-7.784 -19.245,-9.514 -27.462,-9.514 -8.216,0 -6.27,-4.108 -6.27,-4.108 0,0 103.574,2.018 103.574,-0.433 -1.73,-13.406 -207.797,-10.163 -207.797,-10.163 0,0 1.297,-3.027 -7.352,-10.163 -8.649,-7.135 -19.461,-5.415 -19.461,-5.415 0,0 5.19,8.01 5.406,13.848 0.216,5.838 -11.676,3.244 -11.676,3.244 0,0 -14.92,-1.514 -14.704,3.892 0.216,5.406 81.843,3.46 81.843,3.46 0,0 0.541,5.405 -1.622,5.405 -15.136,0.649 -33.083,6.487 -58.598,18.596 -25.515,12.109 -51.246,46.49 -53.192,50.598 -1.946,4.108 -8.001,11.244 -11.677,12.974 -3.676,1.73 -12.325,16.433 -12.325,16.433 0,0 -5.838,9.947 -10.163,9.731 -4.324,-0.217 1.514,-4.325 -4.757,-5.839 -6.27,-1.513 -5.405,-8 -7.805,-8 -2.399,0 -5.426,-2.379 -5.426,13.622 0,16.001 10.853,18.164 10.853,18.164 5.045,4.612 10.667,1.729 10.667,1.729 0,0 3.964,0.793 9.082,2.523 5.117,1.73 21.118,1.586 21.118,1.586 2.307,9.225 10.379,33.211 36.615,33.211 26.236,0 36.903,-21.679 36.903,-21.679 0,0 -0.288,1.442 8.65,-0.288 8.937,-1.73 9.225,-6.631 9.225,-6.631 l 175.291,4.324 c 1.729,2.307 15.856,24.274 51.03,24.274 35.173,0 37.191,-29.463 37.191,-29.463 0,0 0.289,-5.334 5.911,-5.19 5.622,0.144 7.64,-7.352 7.64,-7.352 0,0 2.162,6.199 5.333,6.055 C 2.613,15.659 7.582,9.316 7.582,4.703 7.582,0.09 3.91,-1.496 3.91,-1.496"
           style="fill:#1e130f;fill-opacity:1;fill-rule:nonzero;stroke:none"
           transform="matrix(0.04332768,-0.00349035,0.00349035,0.04332768,300.92363,155.7567)"
           clip-path="url(#clipPath5836)"
           id="path5867" /><path
           d="m 0,0 c 0,-10.668 -8.648,-19.317 -19.317,-19.317 -10.668,0 -19.316,8.649 -19.316,19.317 0,10.668 8.648,19.317 19.316,19.317 C -8.648,19.317 0,10.668 0,0"
           style="fill:#1e130f;fill-opacity:1;fill-rule:nonzero;stroke:none"
           transform="matrix(0.04332768,-0.00349035,0.00349035,0.04332768,287.22672,157.51151)"
           clip-path="url(#clipPath5837)"
           id="path5868" /><path
           d="m 0,0 c 0,-10.668 -8.648,-19.317 -19.317,-19.317 -10.668,0 -19.316,8.649 -19.316,19.317 0,10.668 8.648,19.317 19.316,19.317 C -8.648,19.317 0,10.668 0,0"
           style="fill:#1e130f;fill-opacity:1;fill-rule:nonzero;stroke:none"
           transform="matrix(0.04332768,-0.00349035,0.00349035,0.04332768,299.40886,156.53015)"
           clip-path="url(#clipPath5838)"
           id="path5869" /><path
           d="M 0,0 C 0,132.316 -106.968,239.58 -238.919,239.58 -370.87,239.58 -477.838,132.316 -477.838,0 c 0,-132.316 106.968,-239.58 238.919,-239.58 C -106.968,-239.58 0,-132.316 0,0 Z"
           style="fill:none;stroke:#1e130f;stroke-width:28.346;stroke-linecap:butt;stroke-linejoin:miter;stroke-miterlimit:10;stroke-dasharray:none;stroke-opacity:1"
           transform="matrix(0.04332768,-0.00349035,0.00349035,0.04332768,302.0065,153.62992)"
           clip-path="url(#clipPath5839)"
           id="path5870" /><path
           d="m 0,0 137.134,-137.513 c 9.22,-9.245 24.306,-9.245 33.526,0 l 238.628,239.288 c 9.22,9.245 9.22,24.373 0,33.618 L 170.66,374.681 c -9.22,9.245 -24.306,9.245 -33.526,0 L -0.011,237.157"
           style="fill:none;stroke:#1e130f;stroke-width:28.346;stroke-linecap:butt;stroke-linejoin:miter;stroke-miterlimit:10;stroke-dasharray:none;stroke-opacity:1"
           transform="matrix(0.04332768,-0.00349035,0.00349035,0.04332768,300.23531,148.60129)"
           clip-path="url(#clipPath5840)"
           id="path5871" /><path
           d="m 0,0 174.092,-174.574 c 9.22,-9.245 24.306,-9.245 33.526,0 L 446.246,64.714 c 9.22,9.245 9.22,24.374 0,33.619 L 207.618,337.621 c -9.219,9.245 -24.306,9.245 -33.526,0 L 0,163.047"
           style="fill:none;stroke:#1e130f;stroke-width:28.346;stroke-linecap:butt;stroke-linejoin:miter;stroke-miterlimit:10;stroke-dasharray:none;stroke-opacity:1"
           transform="matrix(0.04332768,-0.00349035,0.00349035,0.04332768,315.30197,149.00373)"
           clip-path="url(#clipPath5841)"
           id="path5872" /><path
           d="m 0,0 40.304,-40.358 c 0.013,-0.013 0.011,-0.035 -0.004,-0.047 -3.799,-3.085 3.298,-7.018 3.388,-7.103 l 55.146,-52.483 c 0.163,-0.156 -0.182,0.136 0,0 l 11.08,-8.253 c 6.876,-5.122 14.731,-8.776 23.079,-10.735 l 15.957,-3.745 c 0.419,-0.099 21.781,-1.936 22.211,-1.936 l 15.6,0.645 c 1.423,0.058 2.844,0.161 4.26,0.308 l 8.051,0.835 c 0.992,0 1.967,0.264 2.824,0.765 l 8.309,4.86 c 3.537,2.069 6.895,4.43 10.04,7.058 l 3.034,2.535 c 7.199,6.016 13.136,13.4 17.467,21.723 v 0 c 0.595,1.144 0.906,2.414 0.906,3.704 v 4.9 l -5.998,-2.776 c -1.393,-0.645 -2.814,-1.229 -4.257,-1.752 l -11.605,-4.202 c -5.722,-2.072 -11.712,-3.312 -17.786,-3.681 l -0.118,-0.007 c -7.6,-0.462 -15.222,0.369 -22.543,2.461 -6.125,1.75 -12.643,3.702 -13.6,4.342 -1.004,0.671 -4.706,4.589 -7.914,8.068 -3.379,3.664 -6.148,7.845 -8.214,12.381 l -1.955,4.293 c -1.627,3.573 -2.614,7.401 -2.917,11.315 -0.353,4.564 -0.777,10.268 -0.777,11.36 0,0.923 2.123,5.495 4.272,9.889 2.787,5.697 6.807,10.702 11.78,14.639 l 0.591,0.468 c 2.563,2.029 5.535,3.478 8.711,4.246 L 178.751,-4 c 2.521,0.61 5.101,0.948 7.695,1.007 l 21.078,0.48 c 1.53,0.035 3.008,-0.559 4.091,-1.645 l 8.829,-8.599 c 0.341,-0.342 1.055,-1.308 1.464,-1.958 0.273,-0.432 0.574,-0.845 0.886,-1.249 l 1.436,-1.858 c 0.545,-1.093 1.671,-1.892 2.905,-2.505 0.755,-0.376 1.555,-0.651 2.376,-0.844 l 2.341,-0.55 c 0.544,-0.126 2.01,-0.196 2.567,-0.156 l 3.277,-0.069 c 0.296,-0.006 0.59,-10e-4 0.886,0.016 0.993,0.057 3.285,0.184 3.543,0.249 l 3.062,0.768 c 2.543,0.637 4.788,2.131 6.358,4.23 l 3.172,4.242 c 0,0 4.356,4.991 4.356,7.487 v 2.496 l -5.39,-2.162 c -0.551,-0.221 -1.134,-0.357 -1.726,-0.403 l -4.776,-0.368 c -1.548,-0.12 -3.081,0.382 -4.258,1.395 l -1.377,1.183 c -0.747,0.642 -1.32,1.462 -1.665,2.385 l -0.418,1.118 c -0.587,1.569 -0.472,3.313 0.314,4.792 l 3.309,6.222 c 0.287,0.539 0.632,1.046 1.03,1.51 l 0.625,0.732 c 1.593,1.864 3.922,2.937 6.373,2.937 h 7.959 2.357 c 2.761,0 5.297,-1.524 6.594,-3.962 l 2.515,-4.729 c 0.236,-0.444 0.515,-0.864 0.833,-1.254 l 4.079,-4.999 c 0.688,-0.842 1.545,-1.53 2.517,-2.017 l 3.665,-1.838 c 0.718,-0.359 1.487,-0.605 2.279,-0.727 l 5.988,-0.924 c 0.601,-0.092 1.21,-0.114 1.816,-0.063 l 5.305,0.443 c 0.828,0.07 1.638,0.272 2.401,0.6 l 0.783,0.336 c 1.569,0.674 2.87,1.851 3.698,3.345 l 0.855,1.543 c 0.642,1.159 0.979,2.463 0.979,3.788 v 2.971 l -5.825,-2.434 c -1.078,-0.45 -2.25,-0.635 -3.415,-0.537 l -3.028,0.253 c -1.721,0.143 -3.334,0.893 -4.553,2.115 v 0 c -1.56,1.565 -2.326,3.752 -2.082,5.948 v 0 c 0.148,1.341 0.946,2.524 2.134,3.166 l 2.036,1.099 c 0.964,0.521 2.019,0.851 3.108,0.972 l 7.213,0.804 c 0.314,0.035 0.629,0.052 0.945,0.052 h 6.578 l 7.673,-0.624 4.372,-0.411 c 3.918,-0.368 7.603,-2.023 10.482,-4.707 v 0 c 0.194,-0.182 0.59,-0.441 1.095,-0.733 2.828,-1.634 6.21,-2.027 9.347,-1.118 l 9.185,2.659 -4.983,3.811 -4.104,4.397 -1.173,2.639 -6.024,1.204 c 0.173,0.521 0.422,1.014 0.738,1.463 l 3.465,4.925 -350.815,1.591 c -4.089,0.02 -6.822,-4.215 -5.129,-7.948 l 3.251,-7.167 C -10.312,13.187 -5.664,6.161 0,0"
           style="fill:#1e130f;fill-opacity:1;fill-rule:nonzero;stroke:none"
           transform="matrix(0.04332768,-0.00349035,0.00349035,0.04332768,317.11122,154.61534)"
           clip-path="url(#clipPath5842)"
           id="path5873" /><path
           d="m 0,0 c 0,0 -1.861,-2.566 14.188,-14.461 0,0 -4.652,-13.994 9.071,-35.918 13.723,-21.924 63.033,-66.317 94.821,-93.995 0,0 -1.551,22.391 13.801,41.05 0,0 -86.758,67.172 -105.133,90.729 0,0 24.655,-11.195 111.413,-82.566 0,0 5.349,4.898 10.466,13.295 5.117,8.396 6.048,23.79 6.048,23.79 l -25.12,19.125 -1.163,24.607 -5.466,0.117 -1.28,-2.916 c 0,0 1.047,20.525 0,28.572 -1.046,8.046 -5.698,31.72 -10.466,38.717 -0.931,6.531 -1.28,11.545 18.724,16.91 3.503,1.166 -1.512,3.032 -16.166,2.215 -14.653,-0.816 -12.909,-2.099 -12.909,-2.099 0,0 -1.628,-6.764 -0.697,-10.146 0.93,-3.381 2.209,-16.326 2.209,-16.326 0,0 0.465,-10.612 -0.465,-19.709 -0.93,-9.096 4.187,-18.425 4.187,-18.425 0,0 0,-10.496 -2.791,-15.627 0,0 -2.675,4.081 -4.769,3.732 -2.093,-0.35 -1.977,-6.764 -1.977,-6.764 0,0 -1.628,4.315 -2.558,4.664 0,0 0.93,8.514 -0.116,12.712 -1.047,4.198 -4.885,13.761 -4.652,16.21 0.232,2.449 2.442,13.061 2.442,25.073 -0.116,4.664 -0.116,6.53 -0.116,6.53 0,0 1.511,1.283 1.395,5.015 -0.116,3.732 0.349,5.598 -3.024,5.714 -3.372,0.117 -3.488,-2.915 -3.488,-2.915 0,0 -3.838,0.35 -4.536,-0.467 -0.698,-0.816 -0.582,-1.632 -0.582,-1.632 0,0 -2.325,0.35 -3.256,-0.467 -0.93,-0.816 -0.731,-1.982 -0.731,-1.982 0,0 -1.13,0 -1.595,-0.817 -0.465,-0.816 -1.345,-6.763 1.595,-10.962 0.847,-1.399 0,-19.825 0,-25.889 0,-6.064 -0.781,-17.415 -3.882,-20.058 0,0 -17.832,8.552 -31.012,9.329 -13.181,0.777 -26.361,-11.04 -26.361,-11.04 0,0 -5.117,5.131 -16.049,7.075"
           style="fill:#1e130f;fill-opacity:1;fill-rule:nonzero;stroke:none"
           transform="matrix(0.04332768,-0.00349035,0.00349035,0.04332768,302.85156,158.15994)"
           clip-path="url(#clipPath5843)"
           id="path5874" /><path
           d="m 0,0 c 0,0 27.911,-21.458 52.566,-32.187 24.655,-10.729 41.169,-12.828 55.357,-10.262 14.189,2.565 17.445,8.396 17.445,8.396 0,0 6.047,14.928 -6.978,37.785 C 105.365,26.589 87.455,48.513 71.639,62.041 55.822,75.569 38.611,87.93 38.611,87.93 c 0,0 -12.095,-13.294 -14.654,-17.492 -2.558,-4.199 -9.304,-18.193 -9.304,-18.193 l 104.435,-81.166 c 0,0 -17.677,7.23 -30.005,15.393 C 76.756,-5.364 10.234,44.548 10.234,44.548 10.234,44.548 1.861,34.286 0,0"
           style="fill:#1e130f;fill-opacity:1;fill-rule:nonzero;stroke:none"
           transform="matrix(0.04332768,-0.00349035,0.00349035,0.04332768,308.35989,150.73876)"
           clip-path="url(#clipPath5844)"
           id="path5875" /><path
           d="m 0,0 10.389,-13.029 c 0,0 -0.775,-2.987 0,-6.096 0.775,-3.11 3.412,-21.458 2.946,-24.568 -0.465,-3.11 2.171,-4.82 2.171,-4.82 0,0 6.358,-12.595 7.598,-18.193 0,0 2.016,5.287 2.636,9.796 0.621,4.509 6.358,12.128 6.358,12.128 0,0 1.301,8.319 0.68,11.429 0,0 35.605,-34.441 49.715,-42.06 0,0 -0.31,12.594 6.513,26.589 6.823,13.994 22.949,30.476 29.772,44.159 0,0 -1.861,12.284 3.566,18.815 2.636,2.954 4.497,-1.089 3.567,-2.177 -0.931,-1.089 0.93,-1.4 0.93,-1.4 0,0 2.791,1.4 3.877,0.156 1.085,-1.244 -0.931,-2.954 -1.086,-3.732 -0.155,-0.777 -0.756,-2.021 1.405,-1.399 2.162,0.622 2.317,1.71 3.402,0.777 1.086,-0.933 -3.721,-4.043 -2.946,-5.442 0.62,-0.933 3.107,0.466 3.107,0.466 0,0 2.165,0.778 2.475,-0.622 0.31,-1.399 -4.807,-4.198 -7.443,-4.509 -2.636,-0.311 -7.598,-15.238 -7.598,-15.238 0,0 -11.785,-25.034 -15.351,-29.077 -3.566,-4.043 -4.652,-5.131 -6.047,-5.442 0,0 -1.861,-35.919 -4.032,-40.272 -2.171,-4.354 -4.342,-6.22 -10.544,-8.863 -6.203,-2.644 -16.98,-3.965 -16.98,-3.965 0,0 -4.186,-1.516 -5.233,-3.382 -1.047,-1.866 6.978,-1.983 6.978,-1.983 0,0 2.442,-1.049 2.442,-2.449 0,-1.399 -0.116,-6.414 -0.116,-6.414 0,0 1.512,0.233 2.093,-0.699 0.582,-0.933 0.233,-3.149 0.233,-3.149 0,0 1.977,0.35 2.093,-1.283 0.116,-1.633 -4.303,-6.181 -4.303,-6.181 0,0 -0.349,-1.632 0.581,-1.749 0.931,-0.117 2.094,-0.583 2.094,-0.583 0,0 0.232,-0.7 -2.21,-6.064 -1.163,-2.566 -1.046,-5.481 -1.046,-5.481 0,0 -0.815,-5.365 -10.351,-6.414 -9.536,-1.05 -22.329,0.816 -25.004,12.361 -0.93,6.764 2.559,14.461 2.908,15.744 0.349,1.282 1.628,5.714 -1.745,8.513 -3.372,2.799 -24.849,15.821 -27.485,22.974 -1.705,3.731 -0.775,7.774 -1.86,10.729 -1.086,2.954 -4.187,18.97 -7.288,26.433 -3.102,7.464 -3.567,24.257 -3.257,28.3 C -1.085,-23.324 0,0 0,0"
           style="fill:#1e130f;fill-opacity:1;fill-rule:nonzero;stroke:none"
           transform="matrix(0.04332768,-0.00349035,0.00349035,0.04332768,304.24267,154.90497)"
           clip-path="url(#clipPath5845)"
           id="path5876" /><g
           id="g67"
           transform="matrix(0.41468184,0,0,0.41468184,232.09998,87.55058)"><g
             id="g68"
             transform="translate(52.372476,1.7677654)"><text
               xml:space="preserve"
               transform="matrix(0.10448413,-0.00841693,0.00841693,0.10448413,97.14629,116.56846)"
               clip-path="url(#clipPath5846)"
               id="text5877"
               style="font-size:203.518px"><tspan
                 style="font-variant:normal;font-weight:normal;font-stretch:condensed;font-size:203.518px;font-family:Impact;writing-mode:lr-tb;fill:#1e130f;fill-opacity:1;fill-rule:nonzero;stroke:none"
                 x="0"
                 y="0"
                 id="tspan5876"
                 dx="0">Silveira</tspan></text><text
               xml:space="preserve"
               transform="matrix(0.10448413,-0.00841693,0.00841693,0.10448413,116.70234,216.75128)"
               clip-path="url(#clipPath5846-0)"
               id="text5877-9"
               style="font-size:203.518px"><tspan
                 style="font-variant:normal;font-weight:normal;font-stretch:condensed;font-size:203.518px;font-family:Impact;writing-mode:lr-tb;fill:#1e130f;fill-opacity:1;fill-rule:nonzero;stroke:none"
                 x="0"
                 y="0"
                 id="tspan5876-8">Sul</tspan></text></g></g></g><text
         xml:space="preserve"
         style="font-style:normal;font-variant:normal;font-weight:normal;font-stretch:normal;font-size:73.4511px;line-height:0;font-family:'Comic Sans MS';-inkscape-font-specification:'Comic Sans MS';text-align:center;writing-mode:lr-tb;direction:ltr;text-orientation:upright;text-anchor:middle;fill:#ffffff;stroke:#f9f9f9;stroke-width:2.43528;stroke-linecap:round;stroke-dashoffset:1.88976"
         x="490.01938"
         y="180.89996"
         id="text66"
         inkscape:export-filename="comandas\Comanda3.0\images\logo.svg"
         inkscape:export-xdpi="52.93"
         inkscape:export-ydpi="52.93"><tspan
           sodipodi:role="line"
           id="tspan66"
           x="490.01938"
           y="180.89996"
           style="font-style:normal;font-variant:normal;font-weight:normal;font-stretch:normal;font-family:Impact;-inkscape-font-specification:Impact;fill:#ffffff;stroke:none;stroke-width:2.43528">SILVEIRA</tspan></text><text
         xml:space="preserve"
         style="font-style:normal;font-variant:normal;font-weight:normal;font-stretch:normal;font-size:40.5176px;line-height:0;font-family:Impact;-inkscape-font-specification:Impact;text-align:center;writing-mode:lr-tb;direction:ltr;text-orientation:upright;text-anchor:middle;fill:#ffcc00;stroke:none;stroke-width:1.34337;stroke-linecap:round;stroke-dashoffset:1.88976"
         x="-152.17406"
         y="654.75165"
         id="text67"
         transform="rotate(-90)"><tspan
           sodipodi:role="line"
           id="tspan67"
           x="-152.17406"
           y="654.75165"
           style="fill:#ffcc00;stroke-width:1.34337">SUL</tspan></text></g></g></svg>
